<svg height="512" viewBox="0 0 256 256" width="512" xmlns="http://www.w3.org/2000/svg"><g id="Layer_1"><g><path d="m16.77 47.806v195.56c0 3.31 2.68 6 6 6h209.8c3.31 0 6-2.69 6-6v-195.56zm201.49 175.22c0 2.76-2.24 5-5 5h-171.18c-2.76 0-5-2.24-5-5v-151.99c0-2.76 2.24-5 5-5h171.18c2.76 0 5 2.24 5 5z" fill="#afafaf"/><path d="m16.77 47.806h221.8v7.13h-221.8z" fill="#7d7b79"/><path d="m146.354 92.968h-37.375c-2.449 0-4.537-1.774-4.934-4.19l-3.732-22.742h54.707l-3.732 22.742c-.396 2.416-2.485 4.19-4.934 4.19z" fill="#fc5d3d"/><path d="m140.802 92.968h-26.27v11.755c0 2.267 1.838 4.105 4.105 4.105h18.061c2.267 0 4.105-1.838 4.105-4.105v-11.755z" fill="#afafaf"/><path d="m107.941 184.792c-.405 14.896-12.991 26.591-27.903 26.591h-20.756c-4.312 0-8.08-3.258-8.364-7.561-.3-4.725 3.436-8.647 8.088-8.647h21.266c5.997 0 11.16-4.595 11.452-10.584.316-6.394-4.798-11.703-11.127-11.703h-9.352c-5.154-.097-7.764-6.297-4.174-10.049l14.012-14.669h-21.801c-4.312 0-8.08-3.258-8.364-7.561-.3-4.725 3.436-8.647 8.088-8.647h43.318c6.265 0 9.482 7.513 5.146 12.051l-14.79 15.477c9.247 4.579 15.561 14.232 15.261 25.302z" fill="#72c2e9"/><path d="m163.286 131.96h-21.971c-4.482 0-8.104 3.631-8.104 8.104v63.214c0 4.474 3.623 8.104 8.104 8.104h21.971c16.606 0 30.067-13.461 30.067-30.067v-19.288c0-16.606-13.461-30.067-30.067-30.067zm-13.867 63.214v-47.005h13.867c7.642 0 13.858 6.216 13.858 13.858v19.288c0 7.642-6.216 13.859-13.858 13.859z" fill="#72c2e9"/><path d="m119.02 184.792c-.405 14.896-12.991 26.591-27.903 26.591h-11.08c14.912 0 27.498-11.695 27.903-26.591.3-11.071-6.013-20.723-15.261-25.302l14.791-15.479c4.336-4.538 1.118-12.051-5.146-12.051h11.079c6.265 0 9.482 7.513 5.146 12.051l-14.791 15.479c9.248 4.579 15.561 14.232 15.262 25.302z" fill="#efc01f"/><path d="m149.419 148.169v47.005h11.079v-47.005zm24.946-16.209h-11.079c16.606 0 30.067 13.461 30.067 30.067v19.288c0 16.606-13.461 30.067-30.067 30.067h11.079c16.606 0 30.067-13.461 30.067-30.067v-19.288c0-16.606-13.462-30.067-30.067-30.067z" fill="#efc01f"/><path d="m245 47.807h-234c-2.209 0-4-1.791-4-4v-33c0-2.209 1.791-4 4-4h234c2.209 0 4 1.791 4 4v33c0 2.209-1.791 4-4 4z" fill="#fc5d3d"/><path d="m176.333 37.557h-96.666c-2.209 0-4-1.791-4-4v-12.5c0-2.209 1.791-4 4-4h96.667c2.209 0 4 1.791 4 4v12.5c-.001 2.209-1.792 4-4.001 4z" fill="#fff"/><path d="m176.333 37.557h-96.666c-2.209 0-4-1.791-4-4v-12.5c0-2.209 1.791-4 4-4h96.667c2.209 0 4 1.791 4 4v12.5c-.001 2.209-1.792 4-4.001 4z" fill="#efc01f"/><circle cx="36.667" cy="27.307" fill="#afafaf" r="10"/><g><path d="m122.792 82.786c1.381 0 2.5-1.119 2.5-2.5v-.784c0-1.381-1.119-2.5-2.5-2.5s-2.5 1.119-2.5 2.5v.784c0 1.381 1.119 2.5 2.5 2.5z"/><path d="m132.542 82.786c1.381 0 2.5-1.119 2.5-2.5v-.784c0-1.381-1.119-2.5-2.5-2.5s-2.5 1.119-2.5 2.5v.784c0 1.381 1.119 2.5 2.5 2.5z"/><path d="m206.932 181.315v-19.288c0-17.958-14.609-32.567-32.567-32.567-1.38 0-14.03-.004-33.055-.004-5.84.01-10.6 4.76-10.6 10.61v2.29c0 1.38 1.12 2.5 2.5 2.5s2.5-1.12 2.5-2.5v-2.29c0-3.09 2.52-5.6 5.6-5.61 31.023 0 19.177.004 21.976.004 14.966 0 27.534 12.231 27.564 27.566v19.29c-.03 15.259-12.509 27.567-27.564 27.567-.01 0-.019.003-.029.003h-21.947c-3.08-.01-5.6-2.52-5.6-5.61v-40.92c0-1.38-1.12-2.5-2.5-2.5s-2.5 1.12-2.5 2.5v40.92c0 5.85 4.76 10.61 10.6 10.61 12.949 0 26.34-.003 33.055-.003 17.957 0 32.567-14.61 32.567-32.568zm-11.079 0v-19.288c0-10.423-4.926-20.161-13.458-26.373 11.296 3.446 19.536 13.964 19.536 26.373v19.288c0 12.41-8.242 22.93-19.54 26.374 8.721-6.347 13.462-16.179 13.462-26.374z"/><circle cx="133.21" cy="152.356" r="2.5"/><path d="m113.403 129.46h-11.079-.001c-.001 0-.001 0-.002 0h-43.313c-5.983 0-10.988 5.03-10.582 11.305.359 5.553 5.129 9.904 10.859 9.904h15.949l-9.975 10.44c-5.139 5.38-1.321 14.278 6.106 14.278h9.233c4.896 0 8.879 4.093 8.632 9.082-.223 4.524-4.241 8.205-8.956 8.205h-21.266c-5.983 0-10.988 5.03-10.582 11.305.359 5.553 5.129 9.903 10.859 9.903h31.831c16.329 0 29.967-13.02 30.402-29.022.284-10.487-5.022-20.345-13.739-25.958l12.578-13.164c5.856-6.13 1.516-16.278-6.954-16.278zm-33.365 79.423h-20.753c-3.102 0-5.68-2.296-5.87-5.227-.211-3.271 2.366-5.982 5.592-5.982h21.266c7.464 0 13.591-5.692 13.95-12.959.393-7.969-6.013-14.328-13.626-14.328h-9.233c-3.042 0-4.591-3.625-2.491-5.824l14.014-14.667c1.515-1.585.391-4.227-1.808-4.227h-21.794c-3.102 0-5.68-2.296-5.87-5.227-.211-3.271 2.366-5.982 5.592-5.982h43.313c4.119 0 6.137 4.897 3.344 7.82-11.041 11.557-7.748 8.111-14.793 15.483-1.17 1.226-.809 3.227.698 3.971 8.481 4.193 14.138 13.132 13.87 22.986-.361 13.338-11.771 24.163-25.401 24.163zm36.704-66.599-14.791 15.479c-1.167 1.221-.809 3.222.698 3.967 8.688 4.302 14.132 13.328 13.871 22.994-.297 10.921-8.011 20.172-18.299 23.152 7.238-5.344 11.97-13.816 12.219-23.016.291-10.74-5.258-20.497-13.739-25.958 3.99-4.177.862-.902 12.577-13.164 3.104-3.249 3.405-7.731 1.487-11.278h2.638c4.073 0 6.169 4.863 3.339 7.824z"/><path d="m163.28 197.676c9.02-.01 16.36-7.34 16.36-16.36v-19.29c0-9.01-7.34-16.35-16.36-16.36-.411 0-3.099.003-13.861.003-1.381 0-2.5 1.119-2.5 2.5v47.005c0 1.395 1.141 2.501 2.501 2.501h13.86zm-.282-47.01c6.883 0 11.632 5.361 11.642 11.36v19.29c-.009 5.961-4.72 11.36-11.642 11.36zm-5 .003v42.005h-6.078c0-33.543-.001-38.994-.001-42.005z"/><circle cx="238.57" cy="97.576" r="2.5"/><circle cx="142" cy="228.026" r="2.5"/><path d="m152 230.526h61.26c4.13 0 7.5-3.36 7.5-7.5v-151.991c0-4.14-3.37-7.5-7.5-7.5h-171.18c-4.14 0-7.5 3.36-7.5 7.5v151.99c0 4.14 3.36 7.5 7.5 7.5h89.92c1.38 0 2.5-1.12 2.5-2.5s-1.12-2.5-2.5-2.5h-89.92c-1.38 0-2.5-1.12-2.5-2.5v-151.99c0-1.38 1.12-2.5 2.5-2.5h56.11l3.388 20.647c.597 3.642 3.71 6.286 7.401 6.286h3.053v9.255c0 3.642 2.963 6.605 6.604 6.605h6.53v10.296c0 1.381 1.119 2.5 2.5 2.5s2.5-1.119 2.5-2.5v-10.296h6.53c3.642 0 6.605-2.963 6.605-6.605v-9.255h3.053c3.69 0 6.803-2.644 7.4-6.286l3.389-20.647h56.116c1.37 0 2.49 1.12 2.5 2.5v151.99c-.01 1.38-1.13 2.5-2.5 2.5h-61.259c-1.38 0-2.5 1.12-2.5 2.5s1.12 2.501 2.5 2.501zm-13.698-125.803c0 .885-.72 1.605-1.605 1.605h-18.061c-.885 0-1.604-.72-1.604-1.605v-9.255h21.27zm10.519-16.35c-.199 1.214-1.237 2.095-2.467 2.095-19.062 0-18.143 0-37.375 0-1.23 0-2.268-.881-2.467-2.095l-3.255-19.837h48.82z"/><path d="m245 4.307h-234c-3.584 0-6.5 2.916-6.5 6.5v33c0 3.584 2.916 6.5 6.5 6.5h3.27v193.059c0 4.68 3.81 8.5 8.5 8.5h209.8c4.68 0 8.49-3.82 8.5-8.5v-135.79c0-1.37-1.12-2.5-2.5-2.5s-2.5 1.13-2.5 2.5v135.79c-.01 1.93-1.58 3.5-3.5 3.5h-209.8c-1.93 0-3.5-1.57-3.5-3.5v-193.059h216.8v37.269c0 1.38 1.12 2.5 2.5 2.5s2.5-1.12 2.5-2.5v-37.269h3.93c3.584 0 6.5-2.916 6.5-6.5v-33c0-3.584-2.916-6.5-6.5-6.5zm1.5 39.5c0 .827-.673 1.5-1.5 1.5-11.129 0-222.436 0-234 0-.827 0-1.5-.673-1.5-1.5v-33c0-.827.673-1.5 1.5-1.5h234c.827 0 1.5.673 1.5 1.5z"/><path d="m201.444 18.557h-3.194c-1.381 0-2.5 1.119-2.5 2.5s1.119 2.5 2.5 2.5h3.194c1.381 0 2.5-1.119 2.5-2.5s-1.119-2.5-2.5-2.5z"/><path d="m218.104 18.557h-3.194c-1.381 0-2.5 1.119-2.5 2.5s1.119 2.5 2.5 2.5h3.194c1.381 0 2.5-1.119 2.5-2.5s-1.12-2.5-2.5-2.5z"/><path d="m234.763 18.557h-3.194c-1.381 0-2.5 1.119-2.5 2.5s1.119 2.5 2.5 2.5h3.194c1.381 0 2.5-1.119 2.5-2.5s-1.119-2.5-2.5-2.5z"/><path d="m201.444 31.057h-3.194c-1.381 0-2.5 1.119-2.5 2.5s1.119 2.5 2.5 2.5h3.194c1.381 0 2.5-1.119 2.5-2.5s-1.119-2.5-2.5-2.5z"/><path d="m218.104 31.057h-3.194c-1.381 0-2.5 1.119-2.5 2.5s1.119 2.5 2.5 2.5h3.194c1.381 0 2.5-1.119 2.5-2.5s-1.12-2.5-2.5-2.5z"/><path d="m234.763 31.057h-3.194c-1.381 0-2.5 1.119-2.5 2.5s1.119 2.5 2.5 2.5h3.194c1.381 0 2.5-1.119 2.5-2.5s-1.119-2.5-2.5-2.5z"/><path d="m36.667 14.807c-6.893 0-12.5 5.607-12.5 12.5s5.607 12.5 12.5 12.5 12.5-5.607 12.5-12.5-5.608-12.5-12.5-12.5zm0 20c-4.136 0-7.5-3.364-7.5-7.5s3.364-7.5 7.5-7.5 7.5 3.364 7.5 7.5-3.365 7.5-7.5 7.5z"/><path d="m176.333 14.557h-96.666c-3.584 0-6.5 2.916-6.5 6.5v12.5c0 3.584 2.916 6.5 6.5 6.5h96.667c3.584 0 6.5-2.916 6.5-6.5v-12.5c-.001-3.584-2.917-6.5-6.501-6.5zm1.5 19c0 .827-.673 1.5-1.5 1.5h-96.666c-.827 0-1.5-.673-1.5-1.5v-12.5c0-.827.673-1.5 1.5-1.5h96.667c.827 0 1.5.673 1.5 1.5v12.5z"/></g></g></g></svg>