<?xml version="1.0" encoding="UTF-8" standalone="no"?>
<svg
   height="426pt"
   viewBox="-21 0 426 426.66667"
   width="426pt"
   version="1.1"
   id="svg2"
   sodipodi:docname="3d-printing.svg"
   inkscape:version="1.3.2 (091e20e, 2023-11-25, custom)"
   xmlns:inkscape="http://www.inkscape.org/namespaces/inkscape"
   xmlns:sodipodi="http://sodipodi.sourceforge.net/DTD/sodipodi-0.dtd"
   xmlns:xlink="http://www.w3.org/1999/xlink"
   xmlns="http://www.w3.org/2000/svg"
   xmlns:svg="http://www.w3.org/2000/svg">
  <defs
     id="defs2">
    <linearGradient
       id="swatch11"
       inkscape:swatch="solid">
      <stop
         style="stop-color:#000000;stop-opacity:1;"
         offset="0"
         id="stop11" />
    </linearGradient>
    <linearGradient
       id="swatch2"
       inkscape:swatch="solid">
      <stop
         style="stop-color:#000000;stop-opacity:1;"
         offset="0"
         id="stop2" />
    </linearGradient>
    <linearGradient
       inkscape:collect="always"
       xlink:href="#swatch2"
       id="linearGradient2"
       x1="0.332031"
       y1="352"
       x2="384.33203"
       y2="352"
       gradientUnits="userSpaceOnUse" />
  </defs>
  <sodipodi:namedview
     id="namedview2"
     pagecolor="#ffffff"
     bordercolor="#000000"
     borderopacity="0.25"
     inkscape:showpageshadow="2"
     inkscape:pageopacity="0.0"
     inkscape:pagecheckerboard="0"
     inkscape:deskcolor="#d1d1d1"
     inkscape:document-units="pt"
     inkscape:zoom="1.4771127"
     inkscape:cx="284"
     inkscape:cy="284"
     inkscape:window-width="1920"
     inkscape:window-height="1017"
     inkscape:window-x="-8"
     inkscape:window-y="-8"
     inkscape:window-maximized="1"
     inkscape:current-layer="svg2" />
  <path
     d="m11 21.332031h53.332031v10.667969c.019531 17.664062 14.335938 31.980469 32 32h32v53.332031c.039063 21.179688 12.59375 40.332031 32 48.8125v36.523438c.042969 13.515625 8.585938 25.542969 21.335938 30.035156v12.628906c0 5.890625 4.773437 10.667969 10.664062 10.667969s10.667969-4.777344 10.667969-10.667969v-12.628906c12.75-4.492187 21.292969-16.519531 21.332031-30.035156v-36.523438c19.410157-8.480469 31.964844-27.632812 32-48.8125v-53.332031h32c17.667969-.019531 31.980469-14.335938 32-32v-10.667969h53.335938c5.890625 0 10.664062-4.773437 10.664062-10.664062s-4.773437-10.667969-10.664062-10.667969h-362.667969c-5.890625 0-10.667969 4.777344-10.667969 10.667969s4.777344 10.664062 10.667969 10.664062zm192 181.335938c0 5.890625-4.777344 10.664062-10.667969 10.664062s-10.664062-4.773437-10.664062-10.664062v-32h21.332031zm32-85.335938c-.019531 17.667969-14.335938 31.980469-32 32h-21.332031c-17.667969-.019531-31.980469-14.332031-32-32v-53.332031h85.332031zm64-96v10.667969c-.003906 5.890625-4.777344 10.664062-10.667969 10.667969h-192c-5.886719-.003907-10.660156-4.777344-10.664062-10.667969v-10.667969zm0 0"
     id="path1"
     style="fill:#454545;fill-opacity:1" />
  <path
     d="m373.667969 405.332031h-341.335938c-5.890625 0-10.664062-4.773437-10.664062-10.664062s4.773437-10.667969 10.664062-10.667969h277.335938c17.671875 0 32-14.328125 32-32s-14.328125-32-32-32h-96c-5.890625-.003906-10.664063-4.777344-10.667969-10.667969v-21.332031c0-5.890625-4.777344-10.667969-10.667969-10.667969s-10.664062 4.777344-10.664062 10.667969v21.332031c.019531 17.667969 14.332031 31.980469 32 32h96c5.890625 0 10.664062 4.777344 10.664062 10.667969s-4.773437 10.667969-10.664062 10.667969h-277.335938c-17.671875 0-32 14.324219-32 32 0 17.671875 14.328125 32 32 32h341.335938c5.890625 0 10.664062-4.777344 10.664062-10.667969s-4.773437-10.667969-10.664062-10.667969zm0 0"
     id="path2"
     style="fill:url(#linearGradient2);fill-opacity:1" />
  <path
     style="fill:#000000;fill-opacity:1;stroke-width:0.676996"
     d="m 66.859908,567.29354 c -14.145954,-1.65661 -26.735031,-10.47025 -32.942715,-23.06327 -6.24889,-12.67661 -6.289119,-25.02447 -0.122169,-37.49845 4.80579,-9.72074 13.42104,-17.39543 23.764952,-21.17043 l 5.062193,-1.84744 190.912991,-0.3385 190.91299,-0.3385 2.70799,-1.45736 c 5.27803,-2.84049 7.78546,-7.12663 7.78546,-13.30834 0,-4.70053 -2.19415,-8.93251 -6.0335,-11.63716 l -2.88307,-2.03099 -70.18057,-0.34355 -70.18057,-0.34355 -4.73898,-1.58305 c -11.67576,-3.90028 -20.27735,-11.22067 -25.76821,-21.93006 -3.90443,-7.6152 -4.33691,-10.76962 -4.34812,-31.71476 -0.01,-18.25805 0.0256,-18.7476 1.5652,-21.66389 5.81739,-11.01906 22.38666,-8.99293 25.43425,3.11016 0.4424,1.75691 0.74739,9.62541 0.74739,19.28175 0,14.89751 0.11583,16.54063 1.33435,18.92913 1.75192,3.43404 5.56287,6.50931 9.20209,7.42568 2.01097,0.50636 23.86503,0.73679 69.87913,0.73679 64.70512,0 67.13056,0.0454 72.23956,1.35206 7.21156,1.8444 13.31208,5.41034 19.01879,11.11705 5.65411,5.6541 9.12144,11.55585 11.15532,18.98742 1.9984,7.302 1.62915,17.47264 -0.87937,24.2207 -5.83782,15.70411 -18.42751,25.96375 -34.62482,28.21659 -3.65597,0.5085 -61.98236,0.73073 -191.78423,0.73073 -208.023671,0 -188.713814,-0.47522 -193.444101,4.76065 -4.092364,4.52976 -4.85449,10.4281 -2.069534,16.01678 2.09376,4.20163 5.521214,6.7177 10.41533,7.64586 2.408478,0.45675 80.349985,0.69129 232.188625,0.69869 l 228.56314,0.0111 2.67983,1.51785 c 9.66418,5.47377 9.34902,19.08153 -0.56475,24.38468 l -2.79207,1.49355 -228.8248,0.0832 c -125.85363,0.0458 -230.878234,-0.15727 -233.388002,-0.45118 z"
     id="path3"
     transform="matrix(0.75117371,0,0,0.75117371,-21.333335,0)" />
  <path
     style="fill:#000000;fill-opacity:1;stroke-width:0.676996"
     d="m 66.859908,567.29354 c -14.145954,-1.65661 -26.735031,-10.47025 -32.942715,-23.06327 -6.252097,-12.68312 -6.289588,-25.04573 -0.113718,-37.49845 4.737958,-9.55338 12.586341,-16.70731 22.93493,-20.90557 l 5.206768,-2.1123 191.251487,-0.3385 191.25149,-0.3385 2.70799,-1.45736 c 5.27803,-2.84049 7.78546,-7.12663 7.78546,-13.30834 0,-4.70053 -2.19415,-8.93251 -6.0335,-11.63716 l -2.88307,-2.03099 -70.18057,-0.34355 -70.18057,-0.34355 -4.73898,-1.59447 c -6.16161,-2.07312 -8.63718,-3.36428 -13.59283,-7.0895 -7.24985,-5.44982 -13.45781,-14.90347 -15.51424,-23.62556 -0.75291,-3.19333 -1.00172,-8.84342 -1.00926,-22.91834 -0.01,-18.25805 0.0256,-18.7476 1.5652,-21.66389 5.81739,-11.01906 22.38666,-8.99293 25.43425,3.11016 0.43869,1.74217 0.75353,9.62538 0.76226,19.08553 0.0131,14.21311 0.16276,16.44298 1.26656,18.87325 1.58681,3.49371 5.48656,6.72887 9.25501,7.67778 2.01097,0.50636 23.86503,0.73679 69.87913,0.73679 64.70512,0 67.13056,0.0454 72.23956,1.35206 7.44386,1.90381 13.3165,5.38578 19.30551,11.44649 8.17207,8.26992 12.18239,17.79853 12.18239,28.94564 0,7.07719 -0.94168,11.53205 -3.69773,17.49299 -5.46525,11.82059 -15.01954,20.00765 -27.80597,23.82692 -3.81987,1.14098 -14.34256,1.22507 -194.27461,1.55263 -177.33327,0.32283 -190.378407,0.42433 -192.335735,1.49648 -4.439242,2.43165 -7.709154,7.83047 -7.709154,12.72827 0,5.16276 3.995212,11.28465 8.793402,13.47417 2.15081,0.98146 23.706229,1.11249 233.563767,1.41975 213.47124,0.31255 231.34997,0.42439 233.22527,1.45892 6.07297,3.35022 8.72987,10.9519 6.06065,17.34023 -1.34078,3.20896 -3.33865,5.3326 -6.73765,7.16185 l -2.70798,1.45735 -228.8248,0.0832 C 174.39428,567.7905 69.369676,567.58743 66.859908,567.29352 Z"
     id="path4"
     transform="matrix(0.75117371,0,0,0.75117371,-21.333335,0)" />
  <path
     style="fill:#000000;fill-opacity:1;stroke-width:0.676996"
     d="m 66.859908,567.29354 c -9.865734,-1.15536 -18.101703,-5.22476 -25.314311,-12.50783 -7.680295,-7.75532 -12.411241,-18.97599 -12.411241,-29.43648 0,-9.3189 4.438489,-20.79142 10.791831,-27.89453 4.184894,-4.67875 11.879795,-9.94809 17.714625,-12.13066 l 4.304361,-1.61009 191.251487,-0.3385 191.25149,-0.3385 3.01643,-1.69249 c 4.55341,-2.55489 7.01439,-6.50538 7.3516,-11.80114 0.23827,-3.74191 0.0243,-4.78792 -1.58434,-7.74342 -1.04845,-1.92635 -3.04928,-4.24156 -4.58632,-5.30695 l -2.7265,-1.88985 -70.46606,-0.35155 -70.46607,-0.35154 -4.77859,-1.76427 c -6.26869,-2.31442 -8.02232,-3.25497 -12.88717,-6.91195 -7.23898,-5.44164 -13.44808,-14.90041 -15.50329,-23.61732 -0.75291,-3.19333 -1.00172,-8.84342 -1.00926,-22.91834 -0.01,-18.25805 0.0256,-18.7476 1.5652,-21.66389 5.81739,-11.01906 22.38666,-8.99293 25.43425,3.11016 0.44019,1.74812 0.74739,9.53242 0.74739,18.93803 0,12.88279 0.20255,16.45463 1.04781,18.47762 1.34079,3.20896 3.33865,5.3326 6.73765,7.16184 l 2.70799,1.45736 70.06913,0.34861 c 65.41323,0.32544 70.31654,0.43053 73.79261,1.58155 13.77077,4.55988 25.28461,16.78304 28.76649,30.53866 1.20302,4.75265 1.33097,13.71831 0.26802,18.78034 -1.01724,4.84437 -4.52646,12.25875 -7.94622,16.78898 -5.3519,7.08978 -13.53251,12.60012 -22.80415,15.36055 -3.81463,1.13571 -14.58902,1.22183 -194.27461,1.55263 -190.174327,0.35011 -190.236757,0.35068 -192.59556,1.73637 -3.235676,1.90083 -6.555422,6.45217 -7.112872,9.75169 -0.978818,5.79357 0.94749,10.47288 5.979522,14.52519 l 2.60005,2.09383 15.678854,0.44019 c 8.623369,0.24211 112.949986,0.4706 231.836936,0.50775 211.07065,0.066 216.21719,0.0979 218.66984,1.35566 6.49066,3.32861 9.3118,10.88064 6.54143,17.51105 -1.34078,3.20896 -3.33865,5.3326 -6.73765,7.16185 l -2.70798,1.45735 -228.8248,0.0832 C 174.39428,567.7905 69.369676,567.58743 66.859908,567.29352 Z"
     id="path5"
     transform="matrix(0.75117371,0,0,0.75117371,-21.333335,0)" />
  <path
     style="fill:#000000;fill-opacity:1;stroke-width:0.676996"
     d="m 66.684148,567.3011 c -9.576568,-1.05076 -17.877539,-5.18345 -25.138551,-12.51539 -7.680295,-7.75532 -12.411241,-18.97599 -12.411241,-29.43648 0,-9.3189 4.438489,-20.79142 10.791831,-27.89453 4.184894,-4.67875 11.879795,-9.94809 17.714625,-12.13066 l 4.304361,-1.61009 191.251487,-0.3385 191.25149,-0.3385 3.23089,-1.89917 c 1.777,-1.04453 4.0043,-3.06784 4.94956,-4.49623 2.09997,-3.17328 2.84671,-8.89201 1.63895,-12.55156 -0.88196,-2.67238 -4.63356,-7.28734 -7.05302,-8.67615 -1.06102,-0.60905 -18.92795,-0.89812 -71.82001,-1.16198 l -70.40763,-0.35125 -4.3959,-1.58074 c -5.95383,-2.14098 -8.46123,-3.48137 -13.25891,-7.08784 -7.24985,-5.44982 -13.45781,-14.90347 -15.51424,-23.62556 -0.75291,-3.19333 -1.00172,-8.84342 -1.00926,-22.91834 -0.01,-18.25805 0.0256,-18.7476 1.5652,-21.66389 5.40504,-10.238 20.34419,-9.4481 25.01631,1.32272 0.48476,1.11754 0.91142,8.65083 1.13939,20.11749 l 0.36444,18.33096 1.84658,2.78776 c 1.01562,1.53326 3.30048,3.64238 5.07748,4.68692 l 3.23089,1.89916 70.40763,0.34751 70.40762,0.3475 3.9507,1.49771 c 6.74309,2.55632 11.42444,5.62714 16.70124,10.95551 8.16914,8.24897 12.18239,17.78089 12.18239,28.93446 0,7.07719 -0.94168,11.53205 -3.69773,17.49299 -5.46656,11.82343 -15.0415,20.02627 -27.80597,23.82134 -3.8123,1.13345 -14.68012,1.22046 -193.93611,1.55263 -188.203695,0.34876 -189.921262,0.36398 -192.561993,1.70589 -5.678496,2.88559 -8.848964,9.76068 -7.252974,15.72791 0.984003,3.67907 3.198486,6.84832 6.361689,9.1045 2.187057,1.55994 2.380717,1.57328 28.943148,1.99369 14.70775,0.23279 118.9858,0.46127 231.729,0.50775 200.07285,0.0825 205.04786,0.11539 207.4994,1.37261 6.49066,3.32861 9.3118,10.88064 6.54143,17.51105 -1.34078,3.20896 -3.33865,5.3326 -6.73765,7.16185 l -2.70798,1.45735 -228.8248,0.0798 c -125.85363,0.0439 -230.957326,-0.15423 -233.563762,-0.4402 z"
     id="path6"
     transform="matrix(0.75117371,0,0,0.75117371,-21.333335,0)" />
  <path
     style="fill:#000000;fill-opacity:1;stroke-width:0.676996"
     d="M 66.684148,567.30061 C 52.844737,565.78355 40.138877,556.85082 33.942931,544.28221 27.663936,531.54513 27.618101,519.2037 33.803475,506.73182 38.43825,497.38649 46.070206,490.3243 56.38142,485.83944 l 4.886756,-2.12549 191.589984,-0.3385 191.58999,-0.3385 3.17149,-1.86435 c 8.90184,-5.23292 9.88375,-16.87579 1.99286,-23.6301 -2.57372,-2.203 -3.2652,-2.43683 -8.38517,-2.83539 -3.06907,-0.23892 -33.76011,-0.43852 -68.2023,-0.44357 -40.31837,-0.006 -64.17715,-0.26146 -66.98807,-0.71752 -12.92779,-2.0975 -24.85302,-11.10247 -31.09058,-23.47709 -3.68354,-7.30772 -4.12671,-10.66869 -4.1378,-31.3808 -0.01,-18.25805 0.0256,-18.7476 1.5652,-21.66389 5.40419,-10.2364 20.36853,-9.44503 25.01173,1.32272 0.47816,1.10888 0.91035,8.73943 1.13939,20.11697 l 0.36902,18.33043 1.84658,2.78828 c 1.01562,1.53356 3.30048,3.64291 5.07748,4.68745 l 3.23089,1.89916 70.40763,0.3385 70.40762,0.3385 4.48143,1.74566 c 7.01467,2.73244 10.69019,5.16772 16.17051,10.71403 8.17216,8.27059 12.18239,17.79909 12.18239,28.946 0,7.07682 -0.94161,11.53174 -3.69741,17.49299 -5.30494,11.47548 -14.2379,19.40487 -26.42893,23.45976 l -4.73898,1.57624 -190.23599,0.35457 c -203.105152,0.37854 -192.181237,0.17802 -195.910813,3.59613 -2.216611,2.03149 -4.8054,7.75146 -4.8054,10.6176 0,2.86916 2.588376,8.58411 4.814639,10.63038 0.892143,0.82001 2.836514,2.01778 4.320824,2.66171 2.536101,1.10022 16.591433,1.18833 233.21603,1.46208 219.88072,0.27786 230.62662,0.34724 232.88677,1.50363 6.3432,3.24546 9.14192,10.8709 6.39915,17.43527 -1.34078,3.20896 -3.33865,5.3326 -6.73765,7.16185 l -2.70798,1.45735 -228.8248,0.0793 C 174.39428,567.7844 69.290584,567.58632 66.684148,567.30061 Z"
     id="path7"
     transform="matrix(0.75117371,0,0,0.75117371,-21.333335,0)" />
  <path
     style="fill:#000000;fill-opacity:1;stroke-width:0.676996"
     d="M 66.684148,567.29865 C 57.055842,566.2472 49.222401,562.39614 41.959961,555.1438 28.609266,541.81168 25.514788,523.44473 33.803475,506.73182 38.43825,497.38649 46.070206,490.3243 56.38142,485.83944 l 4.886756,-2.12549 191.589984,-0.3385 c 179.57635,-0.31728 191.72346,-0.41155 193.71839,-1.50348 7.9775,-4.36649 10.74378,-14.17299 5.92112,-20.99046 -3.20953,-4.5371 -5.06174,-5.52797 -11.30456,-6.04761 -3.05025,-0.2539 -33.72589,-0.48816 -68.16808,-0.52058 -40.07371,-0.0377 -64.19421,-0.31401 -66.98807,-0.7673 -12.92779,-2.0975 -24.85302,-11.10247 -31.09058,-23.47709 -3.68354,-7.30772 -4.12671,-10.66869 -4.1378,-31.3808 -0.01,-18.25805 0.0256,-18.7476 1.5652,-21.66389 4.18947,-7.93552 14.44681,-9.75363 21.26308,-3.76887 4.30171,3.77695 4.51176,4.8545 4.90396,25.15703 0.33706,17.44842 0.42218,18.38997 1.87339,20.72352 2.26622,3.64407 6.40275,6.21529 10.9061,6.77912 2.10183,0.26315 33.28126,0.50416 69.28761,0.53558 44.3887,0.0387 66.62112,0.29473 69.05363,0.79511 14.51722,2.98631 28.22836,16.43054 32.01555,31.39234 1.20302,4.75265 1.33097,13.71831 0.26802,18.78034 -0.41433,1.97315 -1.73917,5.72009 -2.94408,8.32652 -5.30661,11.47912 -14.25341,19.41888 -26.42893,23.45412 l -4.73898,1.5706 -189.2205,0.43073 c -122.54747,0.27895 -190.241151,0.66988 -192.11715,1.10946 -3.450797,0.80859 -5.100493,2.18784 -7.486424,6.25912 -4.374316,7.46421 -0.343427,17.89008 7.865365,20.34372 1.814682,0.54242 66.791409,0.85723 232.696499,1.1274 218.72771,0.3562 230.29666,0.43466 232.54827,1.57706 10.98945,5.57577 9.28306,22.03327 -2.65537,25.61012 -2.98392,0.894 -454.608828,0.96367 -462.779672,0.0714 z"
     id="path8"
     transform="matrix(0.75117371,0,0,0.75117371,-21.333335,0)" />
  <path
     style="fill:#000000;fill-opacity:1;stroke-width:0.676996"
     d="M 67.022646,567.32799 C 56.8753,566.22166 49.397555,562.58848 41.959961,555.15089 28.433471,541.6244 25.413788,522.50363 34.171944,505.83682 c 4.77303,-9.08309 13.287063,-16.50014 23.430987,-20.41206 l 5.314057,-2.04931 152.176782,-6.5e-4 c 83.69723,-3.5e-4 169.78651,-0.20276 191.3095,-0.44981 l 39.1327,-0.44918 2.58006,-1.67294 c 4.90217,-3.17862 7.47796,-9.16429 6.48156,-15.06194 -0.55745,-3.29952 -3.8772,-7.85086 -7.11287,-9.75169 -2.32613,-1.3665 -3.35246,-1.39101 -72.4287,-1.72966 l -70.06913,-0.34352 -4.35215,-1.56615 c -11.9317,-4.2937 -20.26501,-11.52166 -25.68836,-22.28098 -3.68354,-7.30772 -4.12671,-10.66869 -4.1378,-31.3808 -0.01,-18.25805 0.0256,-18.7476 1.5652,-21.66389 4.18947,-7.93552 14.44681,-9.75363 21.26308,-3.76887 4.29204,3.76846 4.50262,4.85185 4.8996,25.20794 0.35411,18.15792 0.37333,18.35324 2.04995,20.82862 3.17369,4.68567 5.98985,6.04189 13.75314,6.62331 3.79239,0.28403 34.98407,0.53353 69.31485,0.55446 42.26213,0.0258 63.57814,0.27637 66.00715,0.77603 14.51722,2.98631 28.22836,16.43054 32.01555,31.39234 1.20302,4.75265 1.33097,13.71831 0.26802,18.78034 -1.83844,8.75515 -8.49942,19.20827 -15.67913,24.60536 -4.91762,3.69663 -7.41085,5.03042 -13.35996,7.14709 l -4.3959,1.56404 -189.2205,0.45635 c -104.07127,0.25101 -190.439094,0.6897 -191.928486,0.97488 -5.896333,1.12902 -10.13238,6.66635 -10.13238,13.24497 0,6.5164 4.541848,12.33949 10.566901,13.54778 1.622754,0.32543 106.226265,0.78945 232.452245,1.03115 217.47064,0.41642 229.62601,0.5021 231.87128,1.63439 8.80778,4.44179 10.01423,16.50971 2.28767,22.88316 -1.44439,1.19144 -3.69244,2.46295 -4.99566,2.82556 -2.75087,0.76543 -455.367042,0.76039 -462.388554,-0.005 z"
     id="path9"
     transform="matrix(0.75117371,0,0,0.75117371,-21.333335,0)" />
  <path
     style="fill:#000000;fill-opacity:1;stroke-width:0.676996"
     d="M 67.022646,567.32799 C 56.8753,566.22166 49.397555,562.58848 41.959961,555.15089 28.433471,541.6244 25.413788,522.50363 34.171944,505.83682 c 4.751804,-9.04269 13.310001,-16.52013 23.283577,-20.34323 l 5.166648,-1.9805 190.912991,-0.2732 c 175.00207,-0.25043 191.0865,-0.36535 192.99486,-1.37899 4.64419,-2.46677 8.39634,-8.40254 8.4078,-13.30083 0.007,-2.85656 -1.48767,-6.70676 -3.59557,-9.26401 -4.06738,-4.93444 0.924,-4.60849 -76.96323,-5.02598 l -70.06913,-0.37559 -4.564,-1.75983 c -11.40916,-4.39926 -19.53723,-11.60383 -24.52756,-21.74075 -1.69378,-3.44061 -3.38114,-7.89664 -3.74968,-9.90228 -0.36855,-2.00565 -0.67008,-11.93497 -0.67008,-22.06516 0,-17.97453 0.038,-18.49044 1.57521,-21.40223 4.18947,-7.93552 14.44681,-9.75363 21.26308,-3.76887 4.28135,3.75907 4.49405,4.85427 4.89552,25.20708 0.3581,18.15413 0.37769,18.35279 2.05403,20.82673 0.93087,1.37377 2.91109,3.32175 4.40048,4.32885 2.52441,1.70695 3.37345,1.86331 12.52443,2.3065 5.39905,0.26149 36.50777,0.49968 69.13048,0.52932 36.9671,0.0336 60.67595,0.31218 62.92888,0.73944 11.17699,2.11967 23.49029,11.93408 28.86785,23.00933 1.53673,3.16496 3.12388,7.36887 3.52699,9.34202 1.0601,5.18899 0.89977,14.52905 -0.33093,19.27847 -4.20882,16.2424 -18.91953,29.54302 -34.98266,31.62941 -2.92704,0.38018 -66.18864,0.67709 -156.55896,0.73479 -83.40596,0.0532 -167.94589,0.29114 -187.86651,0.52865 -41.222666,0.49149 -39.063579,0.1689 -42.924247,6.41338 -3.964512,6.41245 -1.966093,14.97702 4.492112,19.25173 l 2.789803,1.84658 107.353942,0.41939 c 59.04467,0.23067 163.1929,0.45916 231.44051,0.50775 120.54627,0.0858 124.15823,0.12511 126.59833,1.37646 8.95836,4.59412 10.22262,16.54834 2.42995,22.97633 -1.44439,1.19144 -3.69244,2.46295 -4.99566,2.82556 -2.75087,0.76543 -455.367042,0.76039 -462.388554,-0.005 z"
     id="path10"
     transform="matrix(0.75117371,0,0,0.75117371,-21.333335,0)" />
  <path
     style="fill:#0077e7;fill-opacity:1;stroke-width:0.676996"
     d="M 67.022646,567.32799 C 56.870331,566.22112 49.392856,562.58704 41.967042,555.15089 34.169676,547.34266 30.021701,538.43978 29.31717,528.00023 28.057934,509.34122 40.057392,491.71124 58.596707,484.98184 l 4.425552,-1.60639 144.338691,-0.0896 c 79.38628,-0.0493 165.56011,-0.27778 191.4974,-0.50775 l 47.15871,-0.41813 2.55673,-2.07017 c 1.4062,-1.1386 3.09926,-2.81417 3.76236,-3.72348 1.7388,-2.38442 2.88471,-7.39936 2.34642,-10.26874 -0.69548,-3.7072 -4.38762,-8.7732 -7.52643,-10.32703 -2.6309,-1.30239 -4.70272,-1.35116 -72.77712,-1.71295 l -70.06913,-0.3724 -4.564,-1.75518 c -11.3955,-4.38236 -19.53577,-11.59619 -24.52756,-21.73609 -1.69378,-3.44061 -3.38114,-7.89664 -3.74968,-9.90228 -0.36855,-2.00565 -0.67008,-11.93497 -0.67008,-22.06516 0,-17.97453 0.038,-18.49044 1.57521,-21.40223 4.18947,-7.93552 14.44681,-9.75363 21.26308,-3.76887 4.25911,3.73955 4.48918,4.90042 4.91871,24.81853 0.41969,19.46213 0.5308,20.0493 4.50914,23.82821 4.6265,4.39459 0.23238,4.13388 77.40728,4.5926 63.4811,0.37732 70.3447,0.52377 73.00003,1.55765 6.74472,2.62613 11.46035,5.71841 16.72923,10.97022 4.30636,4.2924 6.02677,6.62744 8.23728,11.18004 3.32626,6.85056 4.25992,10.95397 4.25992,18.72226 0,6.64153 -1.29794,12.36004 -4.03692,17.78591 -6.69651,13.26571 -19.03086,22.21858 -32.70699,23.74032 -3.14758,0.35023 -85.62265,0.77867 -189.71139,0.98551 -101.27867,0.20125 -185.893775,0.61187 -188.033575,0.91248 -4.719247,0.66298 -7.095972,2.32467 -9.215273,6.44287 -3.305741,6.42368 -1.368454,14.22485 4.568951,18.3985 l 2.898086,2.03718 117.908781,0.42015 c 64.84983,0.23107 169.02569,0.45955 231.50191,0.50774 110.23233,0.085 113.66743,0.12571 116.10488,1.37571 8.95836,4.59412 10.22262,16.54834 2.42995,22.97633 -1.44439,1.19144 -3.69244,2.46295 -4.99566,2.82556 -2.75087,0.76543 -455.367042,0.76039 -462.388554,-0.005 z"
     id="path11"
     transform="matrix(0.75117371,0,0,0.75117371,-21.333335,0)" />
</svg>
