<svg height="512pt" viewBox="-2 0 512 512.00099" width="512pt" xmlns="http://www.w3.org/2000/svg"><path d="m359.175781 168.742188c0 77.007812-68.652343 139.09375-89.542969 156.40625h-29.851562c-20.890625-17.3125-89.542969-79.398438-89.542969-156.40625 0-88.949219 91.632813-159.191407 95.515625-162.175782l8.953125-6.566406 8.953125 6.566406c3.882813 2.984375 95.515625 73.226563 95.515625 162.175782zm0 0" fill="#b9dd39"/><path d="m359.175781 168.742188c0 77.007812-68.652343 139.09375-89.542969 156.40625h-14.925781v-325.148438l8.953125 6.566406c3.882813 2.984375 95.515625 73.226563 95.515625 162.175782zm0 0" fill="#a8d32a"/><path d="m269.632812 153.820312v171.328126c-3.285156 2.6875-5.375 4.480468-5.972656 4.773437l-8.953125 6.570313-8.953125-6.570313c-.597656-.292969-2.6875-2.085937-5.972656-4.773437v-171.328126zm0 0" fill="#a8d32a"/><path d="m269.632812 153.820312v171.328126c-3.285156 2.6875-5.375 4.480468-5.972656 4.773437l-8.953125 6.570313v-182.671876zm0 0" fill="#93bf00"/><path d="m200.570312 314.398438c-44.4375-76.980469-158.496093-91.265626-163.332031-91.832032l-11.0625-1.296875-4.402343 10.214844c-1.925782 4.476563-46.59375 110.402344-2.140626 187.382813 38.457032 66.625 128.941407 86.253906 155.769532 90.710937l25.855468-14.925781c9.554688-25.464844 37.78125-113.632813-.6875-180.253906zm0 0" fill="#b9dd39"/><path d="m194.042969 512 4.402343-10.21875c.257813-.601562 1.328126-3.167969 2.8125-7.128906l-85.683593-148.40625-25.855469 14.921875 85.6875 148.410156c4.171875.691406 6.925781 1.046875 7.574219 1.125zm0 0" fill="#a8d32a"/><path d="m487.640625 231.484375-4.402344-10.214844-11.058593 1.296875c-4.839844.566406-118.898438 14.851563-163.335938 91.832032-38.46875 66.617187-10.242188 154.785156-.6875 180.25l25.851562 14.929687c26.828126-4.453125 117.316407-24.085937 155.777344-90.710937 44.449219-76.980469-.21875-182.90625-2.144531-187.382813zm0 0" fill="#a8d32a"/><path d="m393.839844 346.246094-85.683594 148.40625c1.484375 3.960937 2.554688 6.527344 2.8125 7.132812l4.402344 10.214844 11.0625-1.296875c.648437-.074219 3.402344-.429687 7.574218-1.125l85.6875-148.40625zm0 0" fill="#93bf00"/></svg>