<?xml version="1.0"?>
<svg xmlns="http://www.w3.org/2000/svg" xmlns:xlink="http://www.w3.org/1999/xlink" id="Apple" viewBox="0 0 512 512"><defs><style>.cls-1{fill:url(#Nepojmenovan&#xFD;_p&#x159;echod_87);}.cls-2{fill:url(#Nepojmenovan&#xFD;_p&#x159;echod_87-2);}.cls-3{fill:url(#Nepojmenovan&#xFD;_p&#x159;echod_87-3);}.cls-4{fill:url(#Nepojmenovan&#xFD;_p&#x159;echod_87-4);}.cls-5{fill:url(#Nepojmenovan&#xFD;_p&#x159;echod_17);}.cls-6{fill:#282828;}.cls-7{fill:#0c080c;}.cls-8{opacity:0.7;fill:url(#Nepojmenovan&#xFD;_p&#x159;echod_113);}.cls-9{fill:url(#Nepojmenovan&#xFD;_p&#x159;echod_180);}.cls-10{fill:#1a1a1a;}.cls-11{fill:url(#Nepojmenovan&#xFD;_p&#x159;echod_44);}.cls-12{fill:#141414;}.cls-13{fill:url(#Nepojmenovan&#xFD;_p&#x159;echod_35);}.cls-14{fill:url(#Nepojmenovan&#xFD;_p&#x159;echod_35-2);}.cls-15{fill:url(#Nepojmenovan&#xFD;_p&#x159;echod_111);}.cls-16{fill:url(#Nepojmenovan&#xFD;_p&#x159;echod_111-2);}.cls-17{fill:#ccc;}.cls-18{fill:#fff;}.cls-19{fill:#4d4d4d;opacity:0.5;}.cls-20{fill:#42d34c;}</style><linearGradient gradientUnits="userSpaceOnUse" id="Nepojmenovan&#xFD;_p&#x159;echod_87" x1="140.33" x2="140.33" y1="103.13" y2="84.88"><stop offset="0" stop-color="#666"/><stop offset="0.03" stop-color="#919293"/><stop offset="0.06" stop-color="#b7b8ba"/><stop offset="0.09" stop-color="#d2d4d6"/><stop offset="0.11" stop-color="#e3e5e8"/><stop offset="0.13" stop-color="#e9ebee"/><stop offset="0.88" stop-color="#e9ebee"/><stop offset="0.89" stop-color="#e3e5e8"/><stop offset="0.92" stop-color="#d2d3d6"/><stop offset="0.94" stop-color="#b6b7b9"/><stop offset="0.97" stop-color="#8f8f90"/><stop offset="1" stop-color="#666"/></linearGradient><linearGradient id="Nepojmenovan&#xFD;_p&#x159;echod_87-2" x1="140.33" x2="140.33" xlink:href="#Nepojmenovan&#xFD;_p&#x159;echod_87" y1="152" y2="118.44"/><linearGradient id="Nepojmenovan&#xFD;_p&#x159;echod_87-3" x1="140.33" x2="140.33" xlink:href="#Nepojmenovan&#xFD;_p&#x159;echod_87" y1="194.23" y2="160.67"/><linearGradient id="Nepojmenovan&#xFD;_p&#x159;echod_87-4" x1="371.67" x2="371.67" xlink:href="#Nepojmenovan&#xFD;_p&#x159;echod_87" y1="183" y2="129.5"/><radialGradient cx="256" cy="255.55" gradientTransform="translate(0 -127.77) scale(1 1.5)" gradientUnits="userSpaceOnUse" id="Nepojmenovan&#xFD;_p&#x159;echod_17" r="183.52"><stop offset="0"/><stop offset="1" stop-color="#f6f6f6"/></radialGradient><linearGradient gradientUnits="userSpaceOnUse" id="Nepojmenovan&#xFD;_p&#x159;echod_113" x1="256" x2="256" y1="66.25" y2="29.02"><stop offset="0.8" stop-color="#0c080c"/><stop offset="0.86" stop-color="#0f0b0f"/><stop offset="0.9" stop-color="#171417"/><stop offset="0.93" stop-color="#262326"/><stop offset="0.96" stop-color="#3a383a"/><stop offset="0.99" stop-color="#545354"/><stop offset="1" stop-color="#626262"/></linearGradient><linearGradient gradientUnits="userSpaceOnUse" id="Nepojmenovan&#xFD;_p&#x159;echod_180" x1="91.4" x2="420.6" y1="350.58" y2="160.51"><stop offset="0" stop-color="#f99986"/><stop offset="0.11" stop-color="#f8846b"/><stop offset="0.34" stop-color="#f55027"/><stop offset="0.39" stop-color="#d34c3e"/><stop offset="0.52" stop-color="#864372"/><stop offset="0.63" stop-color="#4d3c98"/><stop offset="0.71" stop-color="#2a38b0"/><stop offset="0.75" stop-color="#1d36b9"/><stop offset="0.97" stop-color="#043170"/><stop offset="1" stop-color="#003064"/></linearGradient><linearGradient gradientUnits="userSpaceOnUse" id="Nepojmenovan&#xFD;_p&#x159;echod_44" x1="282.42" x2="277.22" y1="43.5" y2="38.29"><stop offset="0" stop-color="#333"/><stop offset="0.16" stop-color="#282828"/><stop offset="0.46" stop-color="#191919"/><stop offset="0.7" stop-color="#141414"/></linearGradient><linearGradient gradientUnits="userSpaceOnUse" id="Nepojmenovan&#xFD;_p&#x159;echod_35" x1="278.79" x2="278.79" y1="42.82" y2="39.54"><stop offset="0" stop-color="#141414"/><stop offset="0.24" stop-color="#141516"/><stop offset="0.35" stop-color="#15181c"/><stop offset="0.49" stop-color="#16212c"/><stop offset="0.64" stop-color="#193147"/><stop offset="0.8" stop-color="#1c466c"/><stop offset="0.98" stop-color="#20619b"/><stop offset="1" stop-color="#2165a2"/></linearGradient><linearGradient id="Nepojmenovan&#xFD;_p&#x159;echod_35-2" x1="280.85" x2="280.85" xlink:href="#Nepojmenovan&#xFD;_p&#x159;echod_35" y1="42.82" y2="39.54"/><linearGradient gradientUnits="userSpaceOnUse" id="Nepojmenovan&#xFD;_p&#x159;echod_111" x1="177.83" x2="146.2" y1="255.37" y2="255.37"><stop offset="0.65" stop-color="#0c080c" stop-opacity="0"/><stop offset="0.71" stop-color="#110d11" stop-opacity="0.06"/><stop offset="0.79" stop-color="#201d20" stop-opacity="0.23"/><stop offset="0.88" stop-color="#383638" stop-opacity="0.51"/><stop offset="0.98" stop-color="#595959" stop-opacity="0.9"/><stop offset="1" stop-color="#626262"/></linearGradient><linearGradient gradientTransform="matrix(-1, 0, 0, 1, 124.08, 0)" id="Nepojmenovan&#xFD;_p&#x159;echod_111-2" x1="-209.7" x2="-241.34" xlink:href="#Nepojmenovan&#xFD;_p&#x159;echod_111" y1="255.37" y2="255.37"/></defs><title/><rect class="cls-1" height="18.25" rx="1.25" ry="1.25" width="3.3" x="138.68" y="84.88"/><rect class="cls-2" height="33.56" rx="1.25" ry="1.25" width="3.3" x="138.68" y="118.44"/><rect class="cls-3" height="33.56" rx="1.25" ry="1.25" width="3.3" x="138.68" y="160.67"/><rect class="cls-4" height="53.5" rx="1.25" ry="1.25" width="3.3" x="370.02" y="129.5"/><rect class="cls-5" height="464.67" rx="32.49" ry="32.49" width="231.33" x="140.33" y="23.21"/><rect class="cls-6" height="457.29" rx="30.19" ry="30.19" width="223.67" x="144.17" y="26.9"/><rect class="cls-7" height="453.05" rx="28.69" ry="28.69" width="219.61" x="146.2" y="29.02"/><path class="cls-8" d="M337.12,29H174.88A28.77,28.77,0,0,0,146.2,57.71v8.54a28.77,28.77,0,0,1,28.69-28.69H337.12A28.77,28.77,0,0,1,365.8,66.25V57.71A28.77,28.77,0,0,0,337.12,29Z"/><rect class="cls-9" height="438.82" rx="19.47" ry="19.47" width="202.08" x="154.96" y="36.14"/><path class="cls-7" d="M313.38,36v4a12,12,0,0,1-12,12H210.63a12,12,0,0,1-12-12V36Z"/><rect class="cls-10" height="3.5" rx="1.75" ry="1.75" width="27.5" x="242.25" y="39.17"/><rect class="cls-11" height="7.17" rx="3.33" ry="3.33" width="7.17" x="276.24" y="37.31"/><rect class="cls-12" height="6.67" rx="3.33" ry="3.33" width="6.67" x="276.49" y="37.56"/><ellipse class="cls-13" cx="278.79" cy="41.18" rx="0.81" ry="1.64"/><ellipse class="cls-14" cx="280.85" cy="41.18" rx="0.81" ry="1.64"/><path class="cls-15" d="M154.77,451.6v-394c0-15.71,10.38-23.67,23.06-23.67l-7-3.33c-12.68,0-24.64,12.08-24.64,27V452.31c0,12.06,5.89,24.44,23.06,27.85h8.58C165.15,480.17,154.77,467.31,154.77,451.6Z"/><path class="cls-16" d="M356.85,451.6v-394c0-15.71-10.38-23.67-23.06-23.67l7-3.33c12.68,0,24.64,12.08,24.64,27V452.31c0,12.06-5.89,24.44-23.06,27.85h-8.58C346.47,480.17,356.85,467.31,356.85,451.6Z"/><rect class="cls-17" height="3.25" width="3.83" x="140.33" y="440.5"/><rect class="cls-17" height="3.25" width="3.83" x="140.33" y="66.62"/><rect class="cls-17" height="3.25" width="3.83" x="367.83" y="440.5"/><rect class="cls-17" height="3.25" width="3.83" x="367.83" y="66.62"/><path class="cls-18" d="M215.6,138.24h2c.74,4,4.22,7.08,9.14,7.08,7.05,0,11.1-6.65,11.3-17.35,0-.57,0-1.32,0-1.91h0c-1.19,4.59-5.88,8.12-11.25,8.12A11.48,11.48,0,0,1,214.8,122.5c0-7,5.09-12.29,12.07-12.29a11.39,11.39,0,0,1,9.78,5.11c2.16,2.9,3.28,7.05,3.28,12.39,0,11.87-5,19.36-13.21,19.36C220.73,147.08,216.42,143.45,215.6,138.24Zm21.6-15.54a10.37,10.37,0,0,0-10.3-10.7,10.11,10.11,0,0,0-10.13,10.48,9.84,9.84,0,0,0,10.13,9.93C232.55,132.41,237.19,127.89,237.19,122.7Z"/><path class="cls-18" d="M246.65,119.17a1.65,1.65,0,1,1,1.66,1.66A1.66,1.66,0,0,1,246.65,119.17Zm0,19.24a1.65,1.65,0,1,1,1.66,1.66A1.66,1.66,0,0,1,246.65,138.41Z"/><path class="cls-18" d="M274.66,137.59H256.21v-1.81c5-7.77,10.35-15.44,17.55-25.15l2.83,0v25.2h5.68v1.79h-5.68v9h-1.94Zm-16.29-1.79h16.29V112.59h0c-6.33,8.44-11.72,16.21-16.24,23.16Z"/><path class="cls-18" d="M295.26,112.94h0c-1.84,1.12-7.37,4.79-9.78,6.31v-2.18c2.28-1.44,7.35-4.84,9.83-6.33h1.94v35.82h-1.94Z"/><path class="cls-18" d="M203.11,170.85v-8.19h-3v-.44h6.52v.44h-3v8.19Z"/><path class="cls-18" d="M211.06,170.85h-.44V169.5h0a2.25,2.25,0,0,1-2.18,1.45,2.12,2.12,0,0,1-2.24-2.27v-4h.46v4a1.76,1.76,0,0,0,1.88,1.92,2,2,0,0,0,2.07-2.17v-3.73h.47Z"/><path class="cls-18" d="M217.44,169.11a2.4,2.4,0,0,1-2.54,1.84c-1.69,0-2.78-1.19-2.78-3.2s1.08-3.21,2.73-3.21,2.67,1.21,2.67,3v.26h-4.92v0c0,1.69.92,2.69,2.31,2.69a2,2,0,0,0,2.07-1.42Zm-4.84-1.68H217a2.24,2.24,0,0,0-2.2-2.48A2.31,2.31,0,0,0,212.6,167.43Z"/><path class="cls-18" d="M220.55,164.53a2.05,2.05,0,0,1,2.23,1.88h-.45a1.66,1.66,0,0,0-1.79-1.48c-1,0-1.66.53-1.66,1.27s.42,1,1.42,1.18l.86.2c1.24.29,1.72.75,1.72,1.62s-.94,1.73-2.28,1.73a2.18,2.18,0,0,1-2.37-1.85h.46a1.78,1.78,0,0,0,1.93,1.45c1.06,0,1.81-.54,1.81-1.3s-.4-1-1.39-1.24l-.9-.21c-1.17-.28-1.7-.77-1.7-1.57C218.43,165.24,219.31,164.53,220.55,164.53Z"/><path class="cls-18" d="M223.6,167.74c0-1.91,1.09-3.21,2.64-3.21a2.39,2.39,0,0,1,2.33,1.73h0v-4H229v8.63h-.44v-1.67h0a2.41,2.41,0,0,1-2.34,1.76C224.69,170.94,223.6,169.65,223.6,167.74Zm.47,0c0,1.67.92,2.79,2.24,2.79s2.28-1.14,2.28-2.79-.95-2.79-2.28-2.79S224.07,166.07,224.07,167.73Z"/><path class="cls-18" d="M230.29,169.17c0-1.06.77-1.67,2.2-1.79l2.14-.15v-.56a1.6,1.6,0,0,0-1.75-1.73,1.74,1.74,0,0,0-1.92,1.48h-.45a2.15,2.15,0,0,1,2.38-1.9,2,2,0,0,1,2.21,2.11v4.21h-.45v-1.33h0a2.41,2.41,0,0,1-2.29,1.43A1.84,1.84,0,0,1,230.29,169.17Zm4.34-.63v-.92l-2.08.15c-1.17.09-1.8.58-1.8,1.41a1.48,1.48,0,0,0,1.66,1.36A2.11,2.11,0,0,0,234.64,168.54Z"/><path class="cls-18" d="M236.46,173v-.41a1.24,1.24,0,0,0,.33,0c.56,0,.86-.31,1.17-1.15l.2-.51-2.38-6.3h.5l2.12,5.77h0l2.12-5.77h.5l-2.45,6.52c-.56,1.48-.92,1.85-1.8,1.85A1.35,1.35,0,0,1,236.46,173Z"/><path class="cls-18" d="M240.56,172.4l.57-2.66h.49L241,172.4Z"/><path class="cls-18" d="M245.07,168.55c.07,1.17,1.17,2,2.67,2s2.49-.83,2.49-2c0-.9-.61-1.42-2.06-1.79l-1-.25c-1.6-.41-2.32-1.05-2.32-2.14a2.56,2.56,0,0,1,2.83-2.31c1.63,0,2.84,1,2.9,2.23h-.47a2.19,2.19,0,0,0-2.43-1.79,2.09,2.09,0,0,0-2.33,1.87c0,.86.63,1.36,2,1.71l1,.25c1.67.41,2.42,1.05,2.42,2.2,0,1.43-1.2,2.43-3,2.43s-3-1-3.11-2.43Z"/><path class="cls-18" d="M256.75,169.11a2.4,2.4,0,0,1-2.54,1.84c-1.69,0-2.78-1.19-2.78-3.2s1.08-3.21,2.73-3.21,2.67,1.21,2.67,3v.26H251.9v0c0,1.69.92,2.69,2.31,2.69a2,2,0,0,0,2.07-1.42Zm-4.84-1.68h4.44a2.24,2.24,0,0,0-2.2-2.48A2.31,2.31,0,0,0,251.91,167.43Z"/><path class="cls-18" d="M263.3,167.74c0,1.91-1.07,3.21-2.63,3.21a2.37,2.37,0,0,1-2.3-1.73h0v3.67h-.47v-8.26h.44v1.67h0a2.39,2.39,0,0,1,2.32-1.76C262.22,164.53,263.3,165.82,263.3,167.74Zm-.47,0c0-1.66-.9-2.79-2.22-2.79s-2.26,1.14-2.26,2.79.93,2.79,2.26,2.79S262.82,169.4,262.82,167.74Z"/><path class="cls-18" d="M265.16,163v1.63h1.25v.4h-1.25v4.39c0,.74.28,1,.9,1h.43v.41H266c-.91,0-1.3-.4-1.3-1.43V165h-.93v-.4h.93V163Z"/><path class="cls-18" d="M272.3,169.11a2.4,2.4,0,0,1-2.54,1.84c-1.69,0-2.78-1.19-2.78-3.2s1.08-3.21,2.73-3.21,2.67,1.21,2.67,3v.26h-4.92v0c0,1.69.92,2.69,2.31,2.69a2,2,0,0,0,2.07-1.42Zm-4.84-1.68h4.44a2.24,2.24,0,0,0-2.2-2.48A2.31,2.31,0,0,0,267.46,167.43Z"/><path class="cls-18" d="M273.43,164.63h.44V166h0a1.9,1.9,0,0,1,1.88-1.45,1.87,1.87,0,0,1,1.87,1.48h0a2,2,0,0,1,2-1.48,1.93,1.93,0,0,1,2,2.12v4.2h-.47v-4.09a1.59,1.59,0,0,0-1.63-1.81,1.82,1.82,0,0,0-1.76,2v3.87h-.46v-4.11a1.63,1.63,0,0,0-1.63-1.79c-1,0-1.76.86-1.76,2.18v3.71h-.47Z"/><path class="cls-18" d="M283.45,169.19h0v1.66H283v-8.63h.46v4.06h0a2.36,2.36,0,0,1,2.31-1.74c1.54,0,2.62,1.29,2.62,3.2s-1.07,3.21-2.62,3.21A2.39,2.39,0,0,1,283.45,169.19Zm0-1.44c0,1.63.93,2.78,2.25,2.78s2.23-1.12,2.23-2.79S287,165,285.71,165,283.45,166.11,283.45,167.74Z"/><path class="cls-18" d="M294.47,169.11a2.4,2.4,0,0,1-2.54,1.84c-1.69,0-2.78-1.19-2.78-3.2s1.08-3.21,2.73-3.21,2.67,1.21,2.67,3v.26h-4.92v0c0,1.69.92,2.69,2.31,2.69a2,2,0,0,0,2.07-1.42Zm-4.84-1.68h4.44a2.24,2.24,0,0,0-2.2-2.48A2.31,2.31,0,0,0,289.64,167.43Z"/><path class="cls-18" d="M295.61,164.63H296v1.23h0a1.67,1.67,0,0,1,1.67-1.32,1.63,1.63,0,0,1,.58.1v.47a1.49,1.49,0,0,0-.65-.13c-1,0-1.58.83-1.58,2v3.88h-.47Z"/><path class="cls-18" d="M303.86,162.75h0c-.44.27-1.78,1.15-2.36,1.52v-.53c.55-.35,1.77-1.17,2.37-1.53h.47v8.63h-.47Z"/><path class="cls-18" d="M309,162.09a2.45,2.45,0,0,1,2.6,2.34c0,.92-.42,1.62-1.84,3.1l-2.7,2.85v0h4.86v.43h-5.54v-.36l3.07-3.25c1.33-1.39,1.68-2,1.68-2.78a2,2,0,0,0-2.14-1.94,2.08,2.08,0,0,0-2.18,2h-.46A2.5,2.5,0,0,1,309,162.09Z"/><path class="cls-18" d="M262.14,69.88a4.83,4.83,0,0,0-4.82,4.82v4.15H250.6a1.8,1.8,0,0,0-1.8,1.8V87a1.8,1.8,0,0,0,1.8,1.8h8.49a1.8,1.8,0,0,0,1.79-1.8V80.64a1.8,1.8,0,0,0-1.73-1.79V74.7a3,3,0,1,1,6,0v2.9H267V74.7A4.83,4.83,0,0,0,262.14,69.88Z"/><circle class="cls-19" cx="318.63" cy="424.01" r="15.12"/><circle class="cls-19" cx="193.37" cy="423.89" r="15.12"/><path class="cls-18" d="M324.73,420.4h-3.22v-.16A1.22,1.22,0,0,0,320.3,419H317a1.22,1.22,0,0,0-1.21,1.21v.16H313.9v-.06a.43.43,0,0,0-.85,0v.06h-.53a1.08,1.08,0,0,0-1.08,1.08v6.44a1.08,1.08,0,0,0,1.08,1.08h12.2a1.08,1.08,0,0,0,1.08-1.08v-6.44A1.08,1.08,0,0,0,324.73,420.4Zm-6.1,7.37a3.07,3.07,0,1,1,3.07-3.07A3.07,3.07,0,0,1,318.63,427.77Z"/><circle class="cls-18" cx="318.63" cy="424.7" r="2.32"/><path class="cls-18" d="M196.91,417.47h-7.09v2.42a.67.67,0,0,0,.19.47h0l1.55,1.42v10a.43.43,0,0,0,.43.43h2.73a.43.43,0,0,0,.43-.43v-10l1.55-1.43h0a.67.67,0,0,0,.19-.47Zm-2.77,6.47a.15.15,0,0,1-.15.15h-1.25a.15.15,0,0,1-.15-.15v-1.25a.15.15,0,0,1,.15-.15H194a.15.15,0,0,1,.15.15Z"/><path class="cls-18" d="M196.91,416.94v-.72a.67.67,0,0,0-.67-.67H190.5a.67.67,0,0,0-.67.67v.72Z"/><rect class="cls-18" height="2.62" rx="1.31" ry="1.31" width="71.43" x="220.28" y="465.06"/><rect class="cls-18" height="1.84" width="1.5" x="314.96" y="48.06"/><rect class="cls-18" height="2.76" width="1.5" x="317.12" y="47.15"/><rect class="cls-18" height="3.87" width="1.5" x="319.28" y="46.04"/><rect class="cls-18" height="5.13" width="1.5" x="321.43" y="44.78"/><path class="cls-18" d="M330.54,44.86h0a4.85,4.85,0,0,0-3.32,1.31l-.16.15.15.15.5.5.14.14L328,47a3.73,3.73,0,0,1,5.05,0l.15.14.14-.14.5-.5.15-.15-.16-.15A4.84,4.84,0,0,0,330.54,44.86Z"/><path class="cls-18" d="M332.73,47.35a3.26,3.26,0,0,0-2.19-.84h-.14a3.26,3.26,0,0,0-2.06.84l-.16.15.16.16.51.5.14.14.15-.13a2.11,2.11,0,0,1,2.81,0l.15.13.14-.14.51-.5.16-.16Z"/><path class="cls-18" d="M330.54,49.82l.15-.15.82-.81.16-.16-.18-.15a1.46,1.46,0,0,0-1-.31,1.58,1.58,0,0,0-1,.31l-.18.15.16.16.82.81Z"/><path class="cls-20" d="M340,44.86h5.2a.28.28,0,0,1,.28.28v4.58a.29.29,0,0,1-.29.29H340a1.7,1.7,0,0,1-1.7-1.7V46.56a1.7,1.7,0,0,1,1.7-1.7Z"/><path class="cls-18" d="M348.23,46.42H348V46a1.35,1.35,0,0,0-1.35-1.35h-7.25A1.35,1.35,0,0,0,338.07,46v2.79a1.35,1.35,0,0,0,1.35,1.35h7.25A1.35,1.35,0,0,0,348,48.82v-.38h.22a.38.38,0,0,0,.38-.38V46.79A.38.38,0,0,0,348.23,46.42Zm-.76,2.41a.8.8,0,0,1-.8.8h-7.25a.8.8,0,0,1-.8-.8V46a.8.8,0,0,1,.8-.8h7.25a.8.8,0,0,1,.8.8Z"/></svg>
