<svg xmlns="http://www.w3.org/2000/svg" version="1.1" xmlns:xlink="http://www.w3.org/1999/xlink" width="512" height="512" x="0" y="0" viewBox="0 0 512 512" style="enable-background:new 0 0 512 512" xml:space="preserve" class=""><g><path fill="#ff4500" d="m488.54 44.94-.16-.09c-4.12-2.37-8.78-3.83-13.79-4.2-2.41-.18-4.9-.12-7.45.23L69.37 95.17c-21.41 2.92-38.85 24.18-38.85 47.39V448.4c0 8.87 2.55 16.76 6.88 22.96 2.67 3.8 6 6.96 9.83 9.33 6.28 3.88 13.91 5.62 22.14 4.5l397.78-54.29c21.43-2.92 38.85-24.19 38.85-47.4V77.66c0-14.64-6.95-26.62-17.46-32.73zm-112.65 70.12 44.18-6.03-151.02 154.35-21.83-16.82-125.66-96.79 254.33-34.72zm73.12 256.57-361.5 49.35V204.05l151.05 116.36 11.98 9.23c.09.06.18.12.27.19.62.46 1.25.9 1.9 1.28l.98.57.3.17c1.95 1.02 4.05 1.77 6.24 2.22.03.01.06.01.09.02.37.07.75.14 1.12.19.04.01.07.01.12.02.66.1 1.33.17 2.02.21l.33.03c.22.01.46.01.68.02.27 0 .52.01.79.01.19 0 .38-.01.59-.01.32-.01.64-.03.97-.04l.45-.03c.48-.04.96-.09 1.44-.16h.02c.48-.06.96-.15 1.43-.23l.42-.09c.34-.07.67-.15 1-.22.17-.04.35-.1.53-.14.29-.07.57-.16.84-.25.2-.05.41-.12.61-.18s.39-.14.59-.2c.53-.18 1.07-.38 1.59-.61.11-.03.2-.07.3-.12.34-.14.67-.29 1-.45.06-.03.14-.06.21-.1 1.49-.71 2.96-1.56 4.35-2.51.02-.02.04-.03.06-.04.33-.23.65-.47.98-.71.05-.04.12-.09.17-.13.91-.68 1.78-1.42 2.64-2.2.13-.13.27-.25.39-.36.19-.19.39-.38.59-.58l.31-.31 137.63-140.65 24.52-25.06z" opacity="1" data-original="#ffdd90" class=""></path><path fill="#cd3800" d="m449.01 371.63-361.5 49.35v-17.41l336.98-45.99z" opacity="1" data-original="#fcd56e" class=""></path><path fill="#da3b00" d="M449.01 159.19v212.44l-24.52-14.05V184.26z" opacity="1" data-original="#b08e30" class=""></path><path fill="#b63100" d="M420.07 109.03 269.05 263.38l-21.83-16.81 128.67-131.51z" opacity="1" data-original="#deb130" class=""></path><path fill="#ff7845" d="M488.38 44.85c-4.12-2.37-8.78-3.83-13.79-4.2-2.41-.18-4.9-.12-7.45.23L69.37 95.17c-21.41 2.92-38.85 24.18-38.85 47.39V448.4c0 8.87 2.55 16.76 6.88 22.96 2.67 3.8 6 6.96 9.83 9.33l-22.89-13.12-1.26-.71C12.77 460.68 6 448.82 6 434.35V128.5c0-23.21 17.43-44.47 38.86-47.4l397.77-54.28c7.55-1.04 14.61.35 20.57 3.6l1.48.85z" opacity="1" data-original="#e5b733" class=""></path></g></svg>