<svg xmlns="http://www.w3.org/2000/svg" version="1.1" xmlns:xlink="http://www.w3.org/1999/xlink" width="512" height="512" x="0" y="0" viewBox="0 0 512 512" style="enable-background:new 0 0 512 512" xml:space="preserve" class=""><g><clipPath id="a"><path d="M-325.33-1195.19h1000v1000h-1000z" fill="#000000" opacity="1" data-original="#000000"></path></clipPath><g fill="none" stroke="#000" stroke-miterlimit="10" stroke-width=".5" clip-path="url(#a)" opacity=".1"><path d="m166.28 71.48 21.26-12.27 21.25-12.27 21.26-12.27 21.25-12.28 21.26-12.27 21.26-12.27 21.26-12.28 21.24-12.26h.01l21.25-12.28 21.26-12.27 21.26-12.27 21.25-12.28 21.26-12.27 21.25-12.27 21.26-12.27 21.26-12.27 21.25-12.28 21.26-12.27 21.26-12.27 21.25-12.27 21.25-12.27 21.26-12.28 21.26-12.27 21.26-12.27 21.25-12.27 21.25-12.27 21.26-12.28 21.26-12.27 21.26-12.27 21.25-12.27 21.26-12.28 21.25-12.27 21.26-12.27 21.26-12.27 21.25-12.27 21.26-12.28 21.26-12.27 21.26-12.28 21.24-12.26h.01l21.25-12.28 21.26-12.27 21.26-12.27 21.26-12.28 21.25-12.27 21.25-12.27 21.26-12.27 21.26-12.27 21.25-12.28 21.26-12.27 21.26-12.27 21.25-12.27 21.26-12.27 21.25-12.28 21.26-12.27 21.26-12.27 21.25-12.27 21.25-12.27 21.26-12.28 21.26-12.27 21.26-12.27 21.25-12.27 21.26-12.28 21.25-12.27 21.26-12.27M81.26 22.39l21.25-12.27 21.25-12.27 21.26-12.27 21.26-12.27 21.26-12.28 21.25-12.27 21.26-12.27 21.25-12.27 21.26-12.28 21.25-12.27h.01l21.25-12.27 21.26-12.27 21.26-12.28 21.25-12.27 21.25-12.27 21.26-12.27 21.26-12.27 21.26-12.28 21.26-12.27 21.24-12.27 21.26-12.27 21.26-12.27 21.26-12.28 21.26-12.27 21.25-12.27 21.25-12.27 21.26-12.27 21.26-12.28 21.26-12.27 21.25-12.27 21.26-12.28 21.25-12.27 21.26-12.27 21.26-12.27 21.25-12.27 21.26-12.28 21.26-12.27 21.25-12.27 21.25-12.27 21.26-12.27 21.26-12.28 21.26-12.27 21.25-12.27 21.26-12.28 21.25-12.26 21.26-12.28 21.25-12.27 21.26-12.27 21.26-12.28 21.26-12.27 21.25-12.27 21.25-12.27 21.26-12.27 21.26-12.28 21.26-12.27 21.25-12.27 21.25-12.27 21.26-12.27 21.26-12.28 21.26-12.27 21.25-12.27 21.26-12.27 21.25-12.27 21.26-12.28M123.77 46.94l21.26-12.27 21.25-12.27 21.26-12.28L208.8-2.15l21.25-12.27 21.26-12.27 21.26-12.28 21.25-12.27 21.25-12.27 21.26-12.27 21.26-12.27 21.26-12.28 21.26-12.27 21.24-12.27 21.26-12.27 21.25-12.27h.01l21.26-12.28 21.25-12.27 21.26-12.27 21.25-12.27 21.25-12.27h.01l21.25-12.28 21.26-12.27 21.26-12.27 21.26-12.28 21.24-12.26 21.26-12.28 21.26-12.27 21.26-12.28 21.25-12.27 21.26-12.27 21.25-12.27 21.26-12.27 21.26-12.28 21.25-12.27 21.26-12.27 21.26-12.27 21.26-12.28 21.25-12.27 21.26-12.27 21.25-12.27 21.26-12.27 21.26-12.28 21.26-12.27 21.25-12.27 21.25-12.27 21.26-12.27 21.26-12.28 21.25-12.27 21.26-12.27 21.25-12.27 21.25-12.27h.01l21.26-12.28 21.25-12.27 21.26-12.28h.01l21.25-12.27 21.24-12.26h.01l21.25-12.28 21.26-12.27 21.26-12.28 21.25-12.27h.01l21.25-12.27 21.25-12.27 21.26-12.27M102.51 34.67l21.26-12.28 21.25-12.27 21.26-12.27 21.26-12.27 21.25-12.27 21.26-12.28 21.26-12.27 21.25-12.27 21.26-12.27 21.25-12.27 21.26-12.28 21.26-12.27 21.26-12.28 21.24-12.26 21.26-12.27 21.26-12.28 21.26-12.27 21.26-12.28 21.25-12.27 21.25-12.26 21.26-12.28 21.26-12.27 21.25-12.28h.01l21.25-12.27 21.26-12.27 21.25-12.27 21.25-12.27 21.26-12.28h.01l21.25-12.27 21.26-12.27 21.25-12.27 21.25-12.27h.01l21.25-12.28 21.26-12.27 21.25-12.27 21.26-12.27 21.26-12.28 21.26-12.27 21.25-12.27 21.26-12.27 21.25-12.27 21.26-12.28 21.26-12.27 21.26-12.28 21.25-12.26 21.25-12.27 21.26-12.28 21.26-12.27 21.26-12.28 21.25-12.27 21.25-12.26 21.26-12.28 21.26-12.27 21.26-12.28 21.25-12.27 21.26-12.27 21.25-12.27 21.26-12.27 21.25-12.28h.01l21.25-12.27 21.26-12.27 21.25-12.27 21.25-12.27 21.26-12.28h.01M60 10.12 81.26-2.15l21.25-12.27 21.26-12.27 21.25-12.28h.01l21.25-12.27 21.26-12.27 21.26-12.28 21.24-12.26h.01l21.25-12.28 21.26-12.27 21.26-12.27 21.26-12.28 21.25-12.27 21.25-12.27 21.26-12.27 21.26-12.27 21.25-12.28h.01l21.25-12.27 21.26-12.27 21.25-12.27 21.26-12.27 21.25-12.28h.01l21.25-12.27 21.26-12.27 21.25-12.27 21.25-12.27 21.26-12.28 21.26-12.27 21.26-12.27 21.25-12.27 21.26-12.28 21.25-12.27 21.26-12.27 21.26-12.27 21.25-12.27 21.26-12.28 21.26-12.27 21.26-12.28 21.25-12.26 21.26-12.28 21.25-12.27 21.26-12.27 21.26-12.28 21.26-12.27 21.24-12.27 21.26-12.27 21.26-12.27 21.26-12.28 21.25-12.27 21.26-12.27 21.25-12.27 21.26-12.27 21.25-12.28h.01l21.25-12.27 21.26-12.27 21.25-12.27h.01l21.25-12.27 21.25-12.28 21.26-12.27 21.26-12.27 21.25-12.27 21.26-12.28 21.25-12.27 21.26-12.27M145.02 59.21l21.26-12.28 21.25-12.26 21.26-12.28 21.26-12.27L251.3-2.15l21.26-12.28 21.26-12.27 21.25-12.27 21.25-12.27 21.26-12.27 21.26-12.28 21.26-12.27 21.25-12.27 21.25-12.27 21.26-12.27 21.26-12.28 21.26-12.27 21.25-12.27 21.26-12.28 21.25-12.26 21.26-12.28 21.25-12.27 21.26-12.27 21.26-12.28 21.25-12.27 21.25-12.27h.01l21.25-12.27 21.26-12.27 21.26-12.28 21.25-12.27 21.26-12.27 21.25-12.27 21.26-12.27 21.26-12.28 21.25-12.27 21.26-12.27 21.26-12.28 21.26-12.27 21.25-12.27 21.26-12.27 21.25-12.27 21.26-12.28 21.26-12.27 21.26-12.27 21.24-12.27 21.26-12.27 21.26-12.28 21.26-12.27 21.25-12.27 21.26-12.28 21.25-12.26 21.26-12.28 21.26-12.27 21.25-12.27 21.26-12.28 21.26-12.27 21.25-12.27 21.25-12.27 21.26-12.27 21.26-12.28 21.25-12.27 21.26-12.27 21.25-12.27 21.26-12.27" fill="" opacity="1"></path><path d="m166.28 71.48-21.26-12.27-21.25-12.27-21.26-12.27-21.25-12.28L60 10.12 38.74-2.15 17.49-14.43h-.01L-3.77-26.69l-21.25-12.28-21.26-12.27-21.26-12.27-21.25-12.28-21.26-12.27-21.25-12.27-21.26-12.27-21.26-12.27-21.25-12.28-21.26-12.27-21.26-12.27-21.25-12.27-21.25-12.27-21.26-12.28-21.26-12.27-21.26-12.27-21.25-12.27h-.01l-21.24-12.27-21.26-12.28-21.26-12.27-21.26-12.27-21.25-12.27-21.26-12.28-21.25-12.27-21.26-12.27-21.26-12.27-21.25-12.27-21.26-12.28-21.26-12.27-21.25-12.28h-.01l-21.25-12.26-21.25-12.28-21.26-12.27-21.26-12.27-21.25-12.28h-.01l-21.25-12.27-21.25-12.27-21.26-12.27-21.26-12.27-21.25-12.28-21.26-12.27-21.26-12.27-21.25-12.27-21.26-12.27-21.25-12.28-21.26-12.27-21.26-12.27-21.25-12.27h-.01l-21.24-12.27-21.26-12.28-21.26-12.27-21.26-12.27-21.25-12.27h-.01l-21.25-12.28-21.25-12.27-21.26-12.27M251.3 22.39l-21.25-12.27L208.8-2.15l-21.26-12.27-21.26-12.27-21.25-12.28h-.01l-21.25-12.27-21.26-12.27-21.25-12.27L60-88.06l-21.25-12.27-21.26-12.27-21.26-12.27-21.26-12.28-21.25-12.27-21.25-12.27-21.26-12.27-21.26-12.27-21.26-12.28-21.26-12.27-21.24-12.27-21.26-12.27-21.26-12.27-21.26-12.28-21.26-12.27-21.25-12.27-21.25-12.27-21.26-12.27-21.26-12.28-21.26-12.27-21.25-12.27-21.26-12.28-21.25-12.27-21.26-12.27-21.26-12.27-21.25-12.27-21.26-12.28-21.26-12.27-21.25-12.27-21.25-12.27-21.26-12.27h-.01l-21.24-12.28h-.01l-21.26-12.27-21.25-12.27-21.26-12.28-21.25-12.26-21.25-12.28h-.01l-21.25-12.27-21.26-12.27-21.26-12.28-21.26-12.27-21.24-12.27h-.01l-21.25-12.27-21.26-12.27-21.26-12.28-21.26-12.27-21.25-12.27-21.25-12.27-21.26-12.27-21.26-12.28-21.26-12.27-21.25-12.27-21.26-12.27-21.25-12.27-21.26-12.28M208.79 46.94l-21.26-12.27-21.25-12.27-21.26-12.28-21.26-12.27-21.25-12.27-21.26-12.27-21.26-12.28-21.25-12.27-21.25-12.27-21.26-12.27-21.26-12.27-21.26-12.28-21.26-12.27-21.24-12.27-21.26-12.27-21.26-12.27-21.26-12.28-21.25-12.27-21.26-12.27-21.25-12.27-21.26-12.27-21.25-12.28-21.26-12.27-21.26-12.27-21.25-12.28h-.01l-21.24-12.26h-.01l-21.25-12.28-21.26-12.27-21.26-12.28-21.25-12.27-21.26-12.27-21.25-12.27-21.26-12.27-21.26-12.28-21.25-12.27-21.26-12.27-21.26-12.27-21.26-12.28-21.25-12.27-21.26-12.27-21.25-12.27-21.26-12.27-21.26-12.28-21.26-12.27-21.25-12.27-21.25-12.27-21.26-12.27-21.26-12.28-21.25-12.27-21.26-12.27h-.01l-21.24-12.27-21.26-12.27-21.26-12.28-21.25-12.27-21.26-12.28-21.25-12.27h-.01l-21.25-12.26-21.25-12.28-21.26-12.27-21.26-12.28-21.25-12.27-21.26-12.27-21.25-12.27-21.26-12.27M230.05 34.67l-21.26-12.28-21.25-12.27-21.26-12.27-21.26-12.27-21.25-12.27-21.26-12.28-21.26-12.27L60-63.51 38.74-75.78 17.49-88.05l-21.26-12.28-21.26-12.27-21.25-12.28h-.01l-21.24-12.26-21.26-12.27-21.26-12.28-21.26-12.27-21.25-12.28h-.01l-21.25-12.27-21.25-12.26-21.26-12.28-21.26-12.27-21.25-12.28-21.26-12.27-21.26-12.27-21.25-12.27-21.25-12.27-21.26-12.28-21.26-12.27-21.26-12.27-21.25-12.27h-.01l-21.25-12.27-21.25-12.28-21.26-12.27-21.25-12.27-21.26-12.27-21.26-12.28-21.26-12.27-21.25-12.27-21.26-12.27-21.25-12.27-21.26-12.28-21.26-12.27-21.25-12.28h-.01l-21.25-12.26-21.25-12.27-21.26-12.28-21.26-12.27-21.25-12.28h-.01l-21.25-12.27-21.25-12.26-21.26-12.28-21.26-12.27-21.25-12.28h-.01l-21.25-12.27-21.26-12.27-21.25-12.27-21.26-12.27-21.25-12.28-21.26-12.27-21.26-12.27-21.25-12.27h-.01l-21.24-12.27-21.26-12.28M272.56 10.12 251.3-2.15l-21.25-12.27-21.26-12.27-21.25-12.28-21.26-12.27-21.26-12.27-21.25-12.28h-.01l-21.25-12.26-21.25-12.28L60-112.6l-21.26-12.27-21.25-12.28h-.01l-21.25-12.27-21.25-12.27-21.26-12.27-21.26-12.27-21.25-12.28-21.26-12.27-21.26-12.27-21.25-12.27-21.26-12.27-21.25-12.28-21.26-12.27-21.26-12.27-21.25-12.27h-.01l-21.24-12.27-21.26-12.28-21.26-12.27-21.26-12.27-21.25-12.27h-.01l-21.25-12.28-21.25-12.27-21.26-12.27-21.26-12.27-21.25-12.27h-.01l-21.25-12.28-21.26-12.27-21.26-12.28-21.25-12.26-21.26-12.28-21.25-12.27-21.26-12.27-21.25-12.28h-.01l-21.26-12.27-21.24-12.27-21.26-12.27-21.26-12.27-21.25-12.28h-.01l-21.25-12.27-21.26-12.27-21.25-12.27-21.26-12.27-21.25-12.28-21.26-12.27-21.26-12.27-21.26-12.27-21.25-12.27-21.25-12.28-21.26-12.27-21.26-12.27-21.25-12.27h-.01l-21.25-12.28-21.25-12.27-21.26-12.27M187.54 59.21l-21.26-12.28-21.25-12.26-21.26-12.28-21.26-12.27L81.26-2.15 60-14.43 38.74-26.7 17.49-38.97-3.76-51.24l-21.26-12.27-21.26-12.28-21.26-12.27-21.25-12.27h-.01l-21.24-12.27-21.26-12.27-21.25-12.28h-.01l-21.26-12.27-21.25-12.27-21.26-12.28-21.25-12.26-21.25-12.28h-.01l-21.25-12.27-21.26-12.27-21.26-12.28-21.25-12.27-21.25-12.27-21.26-12.27-21.26-12.27-21.26-12.28-21.25-12.27-21.26-12.27-21.25-12.27-21.26-12.27-21.26-12.28-21.25-12.27-21.26-12.27-21.26-12.28-21.26-12.27-21.25-12.27-21.26-12.27-21.25-12.27-21.26-12.28-21.26-12.27-21.26-12.27-21.24-12.27-21.26-12.27-21.26-12.28-21.26-12.27-21.25-12.27-21.26-12.28-21.25-12.26-21.25-12.28h-.01l-21.26-12.27-21.25-12.27-21.26-12.28-21.26-12.27-21.24-12.27h-.01l-21.25-12.27-21.26-12.27-21.26-12.28-21.25-12.27-21.26-12.27-21.25-12.27-21.26-12.27" fill="" opacity="1"></path></g><g data-name="3D"><path fill="#49864b" d="M330.71 325.1a475.097 475.097 0 0 1-57.99-28.57 477.572 477.572 0 0 0 33.96 15.54z" opacity="1" data-original="#49864b" class=""></path><path fill="#ff4500" d="M501.98 364.15c-.96 3.5-1.74 7.04-2.5 10.57-24.64 114.78-162.09 95.83-281.95 26.89C77.35 321-38.75 171.99 77.84 88.55c27.82-21.09 56.12-24.63 79.75-16.78 3.83 1.26 7.54 2.83 11.1 4.68l2.66 1.43c45.09 25.51 65.14 95.38 12.96 152.83 27.56 25.79 57.2 47.72 88.41 65.82a475.834 475.834 0 0 0 57.99 28.57c24.55-64.47 78.92-81.67 120.64-67.15 4 1.39 7.89 3.08 11.63 5.03l1.68.91c30.61 16.99 50.21 53.03 37.33 100.26z" opacity="1" data-original="#6ebf72" class=""></path><g fill="#5e9a60"><path d="M462.97 262.98a86.275 86.275 0 0 0-11.63-5.03c-41.72-14.52-96.09 2.68-120.64 67.15l-24.03-13.03c26.9-70.63 89.59-84.53 132.22-62.14l2.18 1.19 21.89 11.86zM217.53 401.62C67.24 325.07-69.38 163.69 53.82 75.52c31.33-23.75 63.26-25.23 88.45-13.3l.1.05 6.92 3.73 19.4 10.44a74.261 74.261 0 0 0-11.1-4.68c-23.63-7.85-51.93-4.31-79.75 16.78-116.59 83.44-.49 232.46 139.69 313.07z" fill="#ff7f50" opacity="1" data-original="#5e9a60" class=""></path></g></g></g></svg>