<svg id="Capa_1" enable-background="new 0 0 512 512" height="512" viewBox="0 0 512 512" width="512" xmlns="http://www.w3.org/2000/svg"><g><g><g><g><g><g><g><path d="m0 376.526c0-15.301 12.404-27.704 27.704-27.704h392.048c15.301 0 27.704 12.404 27.704 27.704 0 15.301-12.404 27.704-27.704 27.704h-392.048c-15.3 0-27.704-12.403-27.704-27.704z" fill="#4073c8"/><g><path d="m387.687 63.06v-20.816l-6.47-6.889h-353.513c-15.3 0-27.704 12.404-27.704 27.705 0 15.301 12.404 27.704 27.704 27.704h332.278c15.301 0 27.705-12.403 27.705-27.704z" fill="#4073c8"/><path d="m419.753 35.355h-38.536v27.705c0 15.301-12.404 27.704-27.704 27.704h66.24c15.301 0 27.704-12.404 27.704-27.704 0-15.301-12.404-27.705-27.704-27.705z" fill="#3b66c1"/><g><path d="m330.889 112.269c0-11.877-9.628-21.505-21.505-21.505h-233.524c-11.877 0-21.505 9.628-21.505 21.505s9.628 21.505 21.505 21.505h233.534c11.873-.006 21.495-9.632 21.495-21.505z" fill="#e28086"/><path d="m309.384 176.783h.02c11.868-.011 21.485-9.635 21.485-21.505 0-11.877-9.628-21.505-21.505-21.505h.01-233.534c-11.877 0-21.505 9.628-21.505 21.505 0 11.877 9.628 21.505 21.505 21.505h233.534c-.003 0-.006 0-.01 0z" fill="#dd636e"/><path d="m371.597 90.764h-66.357c11.877 0 21.505 9.628 21.505 21.505 0 11.877-9.628 21.505-21.505 21.505h66.356c11.877 0 21.505-9.628 21.505-21.505 0-11.877-9.628-21.505-21.504-21.505z" fill="#dd636e"/><path d="m371.597 133.774h-66.357c11.877 0 21.505 9.628 21.505 21.505 0 11.877-9.628 21.505-21.505 21.505h66.356c11.877 0 21.505-9.628 21.505-21.505 0-11.877-9.628-21.505-21.504-21.505z" fill="#da4a54"/><path d="m330.889 198.288c0-11.87-9.617-21.494-21.485-21.505h-.02.01-233.534c-11.877 0-21.505 9.628-21.505 21.505 0 11.877 9.628 21.505 21.505 21.505h233.534c11.873-.005 21.495-9.631 21.495-21.505z" fill="#e28086"/><path d="m371.597 176.783h-66.357c11.877 0 21.505 9.628 21.505 21.505 0 11.877-9.628 21.505-21.505 21.505h66.356c11.877 0 21.505-9.628 21.505-21.505 0-11.877-9.628-21.505-21.504-21.505z" fill="#dd636e"/><path d="m54.356 241.298c0 11.877 9.628 21.505 21.505 21.505h295.736c11.877 0 21.505-9.628 21.505-21.505 0-11.877-9.628-21.505-21.505-21.505h-295.737c-11.876 0-21.504 9.628-21.504 21.505z" fill="#dd636e"/><path d="m54.356 284.307c0 11.877 9.628 21.505 21.505 21.505h295.736c11.877 0 21.505-9.628 21.505-21.505 0-11.877-9.628-21.505-21.505-21.505h-295.737c-11.876.001-21.504 9.629-21.504 21.505z" fill="#e28086"/><path d="m54.356 327.317c0 11.877 9.628 21.505 21.505 21.505h295.736c11.877 0 21.505-9.628 21.505-21.505 0-11.877-9.628-21.505-21.505-21.505h-295.737c-11.876 0-21.504 9.628-21.504 21.505z" fill="#dd636e"/></g></g></g><path d="m75.86 305.812c-11.877 0-21.505 9.628-21.505 21.505 0 11.877 9.628 21.505 21.505 21.505h33.517c7.586 0 13.736 6.15 13.736 13.736v75.709c0 11.877 9.628 21.505 21.505 21.505 11.877 0 21.505-9.628 21.505-21.505v-83.732c0-26.908-21.813-48.722-48.722-48.722h-41.541z" fill="#da4a54"/></g><path d="m443.882 322.908c0-68.522-45.907-126.321-108.642-144.321-69.764 11.042-123.101 71.452-123.101 144.321 0 69.14 48.019 127.065 112.527 142.243 0 0 13.857 1.105 15.481.578 60.207-19.543 103.735-76.098 103.735-142.821z" fill="#bed8fb"/><path d="m358.264 176.783c-11.562 0-22.81 1.343-33.598 3.882 64.508 15.178 112.527 73.103 112.527 142.243s-48.02 127.065-112.527 142.243c10.787 2.538 22.036 3.882 33.598 3.882 80.703 0 146.125-65.422 146.125-146.125-.001-80.702-65.423-146.125-146.125-146.125z" fill="#9dc6fb"/></g></g><g fill="#407093"><path d="m463.304 353.587-24.93-66.06c-.026-.069-.054-.139-.081-.208-1.413-3.438-4.727-5.657-8.444-5.657h-.011c-3.72.004-7.034 2.232-8.441 5.676-.023.056-.045.113-.066.169l-25.159 66.057c-1.497 3.929.476 8.326 4.404 9.822 3.903 1.489 8.317-.454 9.822-4.404l4.399-11.55h29.915l4.35 11.528c1.484 3.934 5.876 5.919 9.809 4.434 3.933-1.482 5.918-5.874 4.433-9.807zm-42.709-21.376 9.228-24.229 9.144 24.229z"/><path d="m367.208 348.607h-.044c-5.477.031-11.359.053-15.808.056v-59.388c0-4.204-3.407-7.612-7.611-7.612s-7.612 3.408-7.612 7.612v66.944c0 3.708 2.672 6.876 6.326 7.502 1.738.298 21.791.126 24.79.109 4.203-.024 7.593-3.45 7.569-7.654-.023-4.19-3.427-7.569-7.61-7.569z"/><path d="m290.757 281.663h-18.656c-.064 0-.127.001-.191.002-3.934.097-7.127 3.178-7.401 7.065 0 .004 0 .008-.001.011-.049.716-.004-1.599-.019 67.533 0 4.204 3.407 7.611 7.612 7.611s7.611-3.408 7.611-7.611v-21.533c3.944-.021 8.49-.041 11.045-.041 14.827 0 26.889-11.896 26.889-26.519 0-14.622-12.062-26.518-26.889-26.518zm0 37.815c-2.536 0-7.027.02-10.957.04-.02-4.056-.041-8.733-.041-11.336 0-2.2-.012-7.054-.024-11.296h11.022c6.324 0 11.666 5.173 11.666 11.296s-5.342 11.296-11.666 11.296z"/></g></g></g><g><path d="m358.264 476.645c-84.77 0-153.736-68.966-153.736-153.736s68.966-153.736 153.736-153.736 153.736 68.965 153.736 153.735-68.966 153.737-153.736 153.737zm0-292.25c-76.377 0-138.513 62.137-138.513 138.513s62.137 138.513 138.513 138.513 138.513-62.137 138.513-138.513-62.137-138.513-138.513-138.513z" fill="#80b4fb"/></g></g></svg>